<svg width="18" height="18" viewBox="0 0 18 18" fill="none" xmlns="http://www.w3.org/2000/svg">
<path d="M12.4082 0.666687C15.3498 0.666687 17.3332 2.55919 17.3332 5.38335V12.6084C17.3332 15.4334 15.3498 17.3334 12.4082 17.3334H5.59984C2.64984 17.3334 0.666504 15.4334 0.666504 12.6084V5.38335C0.666504 2.55919 2.64984 0.666687 5.59984 0.666687H12.4082ZM9.17484 5.43335C8.93317 5.19169 8.53317 5.19169 8.2915 5.43335L5.14984 8.55835C4.9165 8.79169 4.9165 9.20835 5.14984 9.44169L8.2915 12.5667C8.53317 12.8084 8.93317 12.8084 9.17484 12.5667C9.4165 12.3167 9.4165 11.925 9.17484 11.675L7.10817 9.62502H12.3998C12.7498 9.62502 13.0248 9.34169 13.0248 9.00002C13.0248 8.65002 12.7498 8.37502 12.3998 8.37502H7.10817L9.17484 6.31669C9.2915 6.20002 9.35817 6.03335 9.35817 5.87502C9.35817 5.71752 9.2915 5.55835 9.17484 5.43335Z"/>
</svg>
