<svg width="20" height="20" viewBox="0 0 20 20" fill="none" xmlns="http://www.w3.org/2000/svg">
<path d="M16.6667 10.2286C16.6667 10.545 16.4315 10.8065 16.1265 10.8479L16.0417 10.8536L5.05499 10.8531L9.02415 14.806C9.26875 15.0496 9.2696 15.4453 9.02605 15.6899C8.80464 15.9123 8.45746 15.9332 8.2124 15.7522L8.14217 15.6918L3.1005 10.6718C3.06826 10.6397 3.04025 10.605 3.01649 10.5683C3.00977 10.5572 3.00294 10.5459 2.99646 10.5344C2.9905 10.5245 2.98512 10.5143 2.98004 10.5039C2.97298 10.4888 2.96609 10.4732 2.95983 10.4573C2.95474 10.445 2.9505 10.4331 2.94662 10.4211C2.94202 10.4062 2.93754 10.3903 2.9337 10.3741C2.93083 10.3629 2.92857 10.352 2.92659 10.3412C2.92381 10.325 2.92145 10.3082 2.91976 10.2913C2.9183 10.2783 2.91742 10.2655 2.91694 10.2527C2.91681 10.2449 2.91666 10.2368 2.91666 10.2286L2.91697 10.2044C2.91745 10.1921 2.91829 10.1799 2.91948 10.1676L2.91666 10.2286C2.91666 10.1891 2.92031 10.1506 2.9273 10.1131C2.92892 10.1042 2.93085 10.095 2.93299 10.0859C2.93742 10.0671 2.94256 10.049 2.94846 10.0312C2.95136 10.0224 2.95474 10.0129 2.95835 10.0036C2.96566 9.98478 2.97359 9.96686 2.98233 9.94939C2.98638 9.94118 2.99093 9.93259 2.99569 9.92408C3.0035 9.9102 3.01154 9.897 3.02005 9.88415C3.02605 9.87504 3.0327 9.86557 3.03964 9.85625L3.04505 9.84905C3.06189 9.82705 3.08016 9.8062 3.09971 9.78664L3.10046 9.78606L8.14213 4.76523C8.38671 4.52166 8.78244 4.52248 9.02601 4.76706C9.24744 4.98941 9.26689 5.33667 9.08484 5.58097L9.02418 5.65094L5.05666 9.60308L16.0417 9.60358C16.3868 9.60358 16.6667 9.88341 16.6667 10.2286Z" fill="#838799"/>
</svg>
