<svg width="20" height="20" viewBox="0 0 20 20" fill="none" xmlns="http://www.w3.org/2000/svg">
<path d="M11.0357 14.1554H7.78571V11.3697H11.0357C11.4051 11.3697 11.7594 11.5164 12.0206 11.7776C12.2818 12.0388 12.4286 12.3931 12.4286 12.7625C12.4286 13.1319 12.2818 13.4862 12.0206 13.7474C11.7594 14.0086 11.4051 14.1554 11.0357 14.1554ZM7.78571 5.79823H10.5714C10.9408 5.79823 11.2951 5.94498 11.5563 6.20619C11.8175 6.4674 11.9643 6.82168 11.9643 7.19109C11.9643 7.5605 11.8175 7.91478 11.5563 8.17599C11.2951 8.4372 10.9408 8.58395 10.5714 8.58395H7.78571M12.9857 9.7818C13.8864 9.15037 14.5179 8.11966 14.5179 7.19109C14.5179 5.09252 12.8929 3.4768 10.8036 3.4768H5V16.4768H11.5371C13.4871 16.4768 14.9821 14.8982 14.9821 12.9575C14.9821 11.5461 14.1836 10.3389 12.9857 9.7818Z" fill="#838799"/>
</svg>
