<svg width="16" height="18" viewBox="0 0 16 18" fill="none" xmlns="http://www.w3.org/2000/svg">
<path d="M11.0414 0.666658C11.3952 0.665827 11.6749 0.94069 11.6757 1.30717L11.6766 1.93186C13.9721 2.11177 15.4885 3.67599 15.4909 6.07479L15.5 13.0963C15.5033 15.7116 13.8602 17.3208 11.2265 17.325L4.79324 17.3333C2.176 17.3366 0.512353 15.6891 0.509062 13.0663L0.500006 6.12726C0.49672 3.71264 1.95961 2.15258 4.25515 1.94186L4.25433 1.31717C4.2535 0.950685 4.52502 0.674989 4.88704 0.674989C5.24906 0.674157 5.52057 0.949019 5.5214 1.3155L5.52222 1.89854L10.4095 1.89188L10.4087 1.30884C10.4078 0.942356 10.6794 0.667493 11.0414 0.666658ZM11.3771 12.4932H11.3688C10.9904 12.5024 10.6868 12.8197 10.695 13.2029C10.6958 13.586 11.0011 13.9017 11.3795 13.91C11.7654 13.9092 12.0781 13.5919 12.0773 13.2004C12.0773 12.8089 11.7638 12.4932 11.3771 12.4932ZM4.59742 12.4941C4.21895 12.5107 3.92275 12.8281 3.92357 13.2112C3.94085 13.5944 4.2535 13.8942 4.63198 13.8767C5.00305 13.8601 5.29842 13.5427 5.28115 13.1596C5.27292 12.7848 4.96767 12.4932 4.59742 12.4941ZM7.98725 12.4899C7.60877 12.5074 7.3134 12.8239 7.3134 13.207C7.33067 13.5902 7.64333 13.8892 8.0218 13.8725C8.39205 13.8551 8.68825 13.5385 8.67097 13.1546C8.66274 12.7806 8.3575 12.4891 7.98725 12.4899ZM4.59331 9.49557C4.21483 9.51223 3.91946 9.82957 3.92028 10.2127C3.93673 10.5959 4.25021 10.8957 4.62869 10.8782C4.99894 10.8616 5.29431 10.5442 5.27703 10.1611C5.2688 9.78626 4.96438 9.49474 4.59331 9.49557ZM7.98396 9.46642C7.60548 9.48308 7.30928 9.80042 7.3101 10.1836C7.32656 10.5667 7.64004 10.8657 8.01851 10.8491C8.38876 10.8316 8.68414 10.5151 8.66768 10.1319C8.65863 9.75711 8.3542 9.46559 7.98396 9.46642ZM11.3738 9.47058C10.9953 9.47891 10.6991 9.78709 10.6999 10.1702V10.1794C10.7082 10.5625 11.0208 10.8532 11.4001 10.8449C11.7704 10.8357 12.0657 10.5184 12.0575 10.1353C12.0402 9.76877 11.7432 9.46975 11.3738 9.47058ZM10.4111 3.17457L5.52386 3.18123L5.52469 3.85506C5.52469 4.21405 5.25399 4.49724 4.89197 4.49724C4.52995 4.49808 4.25762 4.21572 4.25762 3.85673L4.25679 3.21538C2.65239 3.37614 1.76461 4.319 1.76708 6.12559L1.7679 6.38463L14.2247 6.36797V6.07645C14.1893 4.28568 13.2908 3.34615 11.6782 3.20622L11.679 3.84757C11.679 4.20572 11.4001 4.48975 11.0463 4.48975C10.6843 4.49058 10.412 4.20739 10.412 3.84923L10.4111 3.17457Z" fill="#838799"/>
</svg>
