<svg width="20" height="20" viewBox="0 0 20 20"  xmlns="http://www.w3.org/2000/svg">
<path d="M11.0437 1.66669C11.2583 1.66669 11.4233 1.84169 11.4233 2.05002V4.73335C11.4233 6.25835 12.6692 7.50835 14.1791 7.51669C14.8061 7.51669 15.3012 7.52502 15.6807 7.52502L15.8213 7.5244C16.0749 7.52247 16.4164 7.51669 16.7121 7.51669C16.9183 7.51669 17.0834 7.68335 17.0834 7.89169V14.5917C17.0834 16.6584 15.4249 18.3334 13.3787 18.3334H6.81108C4.66586 18.3334 2.91669 16.575 2.91669 14.4084V5.42502C2.91669 3.35835 4.58335 1.66669 6.63781 1.66669H11.0437ZM11.9266 12.4167H7.43814C7.09986 12.4167 6.81933 12.6917 6.81933 13.0334C6.81933 13.375 7.09986 13.6584 7.43814 13.6584H11.9266C12.2649 13.6584 12.5454 13.375 12.5454 13.0334C12.5454 12.6917 12.2649 12.4167 11.9266 12.4167ZM10.2269 8.25002H7.43814C7.09986 8.25002 6.81933 8.53335 6.81933 8.87502C6.81933 9.21669 7.09986 9.49169 7.43814 9.49169H10.2269C10.5652 9.49169 10.8457 9.21669 10.8457 8.87502C10.8457 8.53335 10.5652 8.25002 10.2269 8.25002ZM12.6256 2.42169C12.6256 2.06252 13.0571 1.88419 13.3038 2.14335C14.1957 3.08002 15.7543 4.71752 16.6256 5.63252C16.8665 5.88502 16.69 6.30419 16.3426 6.30502C15.6644 6.30752 14.8649 6.30502 14.2898 6.29919C13.3772 6.29919 12.6256 5.54002 12.6256 4.61835V2.42169Z" />
</svg>
