<svg width="20" height="20" viewBox="0 0 20 20" fill="none" xmlns="http://www.w3.org/2000/svg">
<path d="M10.0167 1.66663C14.75 1.66663 18.3334 5.54745 18.3334 9.98744C18.3334 15.1368 14.1334 18.3333 10 18.3333C8.63335 18.3333 7.11669 17.9661 5.90002 17.2483C5.47502 16.9896 5.11669 16.7977 4.65835 16.9479L2.97502 17.4486C2.55002 17.5822 2.16669 17.2483 2.29169 16.7977L2.85002 14.9282C2.94169 14.6695 2.92502 14.3941 2.79169 14.1771C2.07502 12.8584 1.66669 11.4146 1.66669 10.0125C1.66669 5.62256 5.17502 1.66663 10.0167 1.66663ZM13.825 8.95255C13.2334 8.95255 12.7584 9.42827 12.7584 10.0208C12.7584 10.605 13.2334 11.0891 13.825 11.0891C14.4167 11.0891 14.8917 10.605 14.8917 10.0208C14.8917 9.42827 14.4167 8.95255 13.825 8.95255ZM9.98335 8.95255C9.40002 8.94421 8.91669 9.42827 8.91669 10.0125C8.91669 10.605 9.39169 11.0807 9.98335 11.0891C10.575 11.0891 11.05 10.605 11.05 10.0208C11.05 9.42827 10.575 8.95255 9.98335 8.95255ZM6.14169 8.95255C5.55002 8.95255 5.07502 9.42827 5.07502 10.0208C5.07502 10.605 5.55835 11.0891 6.14169 11.0891C6.73335 11.0807 7.20835 10.605 7.20835 10.0208C7.20835 9.42827 6.73335 8.95255 6.14169 8.95255Z" fill="#01153A"/>
</svg>
