<svg width="20" height="20" viewBox="0 0 20 20" fill="none" xmlns="http://www.w3.org/2000/svg">
<path d="M8.66906 10.9574C9.00176 11.2739 9.00176 11.7932 8.66906 12.1097C8.35258 12.4262 7.83324 12.4262 7.51677 12.1097C5.93441 10.5273 5.93441 7.95496 7.51677 6.3726L10.3894 3.5C11.9717 1.91764 14.5441 1.91764 16.1265 3.5C17.7088 5.08236 17.7088 7.65472 16.1265 9.23708L14.9174 10.4462C14.9255 9.78077 14.82 9.11536 14.5928 8.48242L14.9742 8.09291C15.9317 7.1435 15.9317 5.6017 14.9742 4.65229C14.0247 3.69475 12.483 3.69475 11.5335 4.65229L8.66906 7.51677C7.71152 8.46619 7.71152 10.008 8.66906 10.9574ZM10.9574 7.51677C11.2739 7.2003 11.7932 7.2003 12.1097 7.51677C13.692 9.09913 13.692 11.6715 12.1097 13.2539L9.23708 16.1265C7.65472 17.7088 5.08236 17.7088 3.5 16.1265C1.91764 14.5441 1.91764 11.9717 3.5 10.3894L4.70909 9.18028C4.70097 9.84569 4.80646 10.5111 5.03368 11.1521L4.65229 11.5335C3.69475 12.483 3.69475 14.0247 4.65229 14.9742C5.6017 15.9317 7.1435 15.9317 8.09291 14.9742L10.9574 12.1097C11.9149 11.1603 11.9149 9.61847 10.9574 8.66906C10.6247 8.35258 10.6247 7.83324 10.9574 7.51677Z" fill="#838799"/>
</svg>
