<svg width="20" height="20" viewBox="0 0 20 20"  xmlns="http://www.w3.org/2000/svg">
<path d="M12.5582 1.66675C14.8165 1.66675 16.6415 2.55841 16.6665 4.82508V17.4751C16.6665 17.6167 16.6332 17.7584 16.5665 17.8834C16.4582 18.0834 16.2749 18.2334 16.0499 18.3001C15.8332 18.3667 15.5915 18.3334 15.3915 18.2167L9.99152 15.5167L4.58319 18.2167C4.45902 18.2826 4.31652 18.3251 4.17486 18.3251C3.70819 18.3251 3.33319 17.9417 3.33319 17.4751V4.82508C3.33319 2.55841 5.16652 1.66675 7.41652 1.66675H12.5582ZM13.1249 6.70008H6.84986C6.49152 6.70008 6.19986 6.99175 6.19986 7.35842C6.19986 7.72425 6.49152 8.01675 6.84986 8.01675H13.1249C13.4832 8.01675 13.7749 7.72425 13.7749 7.35842C13.7749 6.99175 13.4832 6.70008 13.1249 6.70008Z" />
</svg>
