<svg width="20" height="20" viewBox="0 0 20 20"  xmlns="http://www.w3.org/2000/svg">
<path d="M6.966 1.66669C7.30947 1.66669 7.57935 1.93965 7.57935 2.26881C7.57935 2.50965 7.7838 2.70233 8.02913 2.70233H8.83875C10.0736 2.71036 11.0795 3.69784 11.0877 4.90208V5.05461C11.8646 5.05461 12.6415 5.07067 13.4266 5.0787C16.2643 5.0787 18.3334 7.10182 18.3334 9.89565V13.4843C18.3334 16.2781 16.2643 18.3012 13.4266 18.3012C12.2898 18.3253 11.1531 18.3334 10.0082 18.3334C8.86328 18.3334 7.71019 18.3253 6.57346 18.3012C3.73571 18.3012 1.66669 16.2781 1.66669 13.4843V9.89565C1.66669 7.10182 3.73571 5.0787 6.58164 5.0787C7.65295 5.06264 8.74879 5.04658 9.861 5.04658V4.9101C9.861 4.35615 9.39485 3.90657 8.83875 3.90657H8.02913C7.10503 3.90657 6.35265 3.16797 6.35265 2.26881C6.35265 1.93965 6.6307 1.66669 6.966 1.66669ZM7.57117 9.63875C7.22769 9.63875 6.95782 9.91171 6.95782 10.2409V11.0838H6.09096C5.75566 11.0838 5.47761 11.3568 5.47761 11.686C5.47761 12.0231 5.75566 12.2881 6.09096 12.2881H6.95782V13.1391C6.95782 13.4682 7.22769 13.7412 7.57117 13.7412C7.90646 13.7412 8.18451 13.4682 8.18451 13.1391V12.2881H9.0432C9.3785 12.2881 9.65655 12.0231 9.65655 11.686C9.65655 11.3568 9.3785 11.0838 9.0432 11.0838H8.18451V10.2409C8.18451 9.91171 7.90646 9.63875 7.57117 9.63875ZM13.999 12.4888H13.9173C13.573 12.4888 13.3039 12.7617 13.3039 13.0909C13.3039 13.4281 13.573 13.693 13.9173 13.693H13.999C14.3343 13.693 14.6124 13.4281 14.6124 13.0909C14.6124 12.7617 14.3343 12.4888 13.999 12.4888ZM12.6006 9.72706H12.5188C12.1754 9.72706 11.9055 10 11.9055 10.3292C11.9055 10.6664 12.1754 10.9313 12.5188 10.9313H12.6006C12.9359 10.9313 13.214 10.6664 13.214 10.3292C13.214 10 12.9359 9.72706 12.6006 9.72706Z" />
</svg>
