<svg width="20" height="20" viewBox="0 0 20 20"  xmlns="http://www.w3.org/2000/svg">
<path d="M13.8878 1.6753C15.0865 1.60038 16.2687 2.01661 17.1594 2.83244C17.9752 3.72318 18.3915 4.90529 18.3249 6.11238V13.8877C18.3998 15.0947 17.9752 16.2769 17.1677 17.1676C16.277 17.9834 15.0865 18.3997 13.8878 18.3247H6.11241C4.90532 18.3997 3.7232 17.9834 2.83245 17.1676C2.01662 16.2769 1.60038 15.0947 1.6753 13.8877V6.11238C1.60038 4.90529 2.01662 3.72318 2.83245 2.83244C3.7232 2.01661 4.90532 1.60038 6.11241 1.6753H13.8878ZM13.6713 5.4797C13.1552 4.96356 12.3227 4.96356 11.8066 5.4797L11.2488 6.04578C11.1656 6.12902 11.1656 6.27055 11.2488 6.35379C11.2488 6.35379 11.2651 6.37003 11.2942 6.39894L11.499 6.60259C11.6174 6.72044 11.7653 6.86761 11.9137 7.01561L12.4172 7.51877C12.5222 7.62429 12.5919 7.695 12.5974 7.7024C12.689 7.80229 12.7473 7.93549 12.7473 8.08533C12.7473 8.38502 12.5058 8.63477 12.1978 8.63477C12.0563 8.63477 11.9231 8.57649 11.8315 8.48492L10.4413 7.10302C10.3747 7.03642 10.2582 7.03642 10.1916 7.10302L6.22063 11.0739C5.94592 11.3486 5.78774 11.7149 5.77942 12.1062L5.72947 14.0791C5.72947 14.1874 5.76277 14.2873 5.83769 14.3622C5.91262 14.4371 6.01251 14.4787 6.12074 14.4787H8.07706C8.47665 14.4787 8.85959 14.3205 9.15096 14.0375L14.7535 8.41832C15.2614 7.90219 15.2614 7.06972 14.7535 6.56191L13.6713 5.4797Z" />
</svg>
