<svg width="20" height="20" viewBox="0 0 20 20" xmlns="http://www.w3.org/2000/svg">
<path d="M10.0001 1.66608C14.6084 1.66608 18.3334 5.40024 18.3334 9.99941C18.3334 14.6002 14.6084 18.3327 10.0001 18.3327C5.40008 18.3327 1.66675 14.6002 1.66675 9.99941C1.66675 5.40024 5.40008 1.66608 10.0001 1.66608ZM10.0001 12.4419C9.60008 12.4419 9.27508 12.7669 9.27508 13.1669C9.27508 13.5669 9.60008 13.9002 10.0084 13.9002C10.4084 13.9002 10.7334 13.5669 10.7334 13.1669C10.7334 12.7669 10.4084 12.4419 10.0001 12.4419ZM10.0001 6.10774C9.60008 6.10774 9.26675 6.44191 9.26675 6.84108V10.5244C9.26675 10.9252 9.60008 11.2494 10.0001 11.2494C10.4001 11.2494 10.7251 10.9252 10.7251 10.5244V6.84108C10.7251 6.44191 10.4001 6.10774 10.0001 6.10774Z" />
</svg>
