<svg width="20" height="20" viewBox="0 0 20 20" fill="none" xmlns="http://www.w3.org/2000/svg">
<path d="M17.2029 9.95592V11.2471H14.3688C15.0144 12.6286 14.9821 16.4118 10.3468 16.4118C4.96904 16.4441 5.17563 12.2155 5.17563 12.2155L7.7386 12.2478C7.75797 14.4234 9.77866 14.4234 10.1789 14.3976C10.5921 14.3653 12.135 14.3717 12.2577 12.8611C12.3094 12.1574 11.5992 11.6215 10.8245 11.2471H3V9.95592H17.2029ZM14.8852 7.30256L12.3158 7.2832C12.3158 7.2832 12.4256 5.49492 10.1983 5.48847C7.97101 5.47555 8.16469 6.90876 8.16469 7.08952C8.19051 7.27028 8.38419 8.16119 10.1014 8.58728H6.04071C6.04071 8.58728 3.78761 4.24249 9.28801 3.50006C14.9111 2.72536 14.8982 7.31548 14.8852 7.30256Z" fill="#838799"/>
</svg>
