<svg width="20" height="20" viewBox="0 0 20 20" fill="none" xmlns="http://www.w3.org/2000/svg">
<path d="M6.14865 4.40541H17.5V6.02703H6.14865V4.40541ZM6.14865 10.8919V9.27027H17.5V10.8919H6.14865ZM3.71622 4C4.03878 4 4.34813 4.12814 4.57621 4.35622C4.8043 4.58431 4.93243 4.89366 4.93243 5.21622C4.93243 5.53878 4.8043 5.84813 4.57621 6.07621C4.34813 6.3043 4.03878 6.43243 3.71622 6.43243C3.39366 6.43243 3.08431 6.3043 2.85622 6.07621C2.62814 5.84813 2.5 5.53878 2.5 5.21622C2.5 4.89366 2.62814 4.58431 2.85622 4.35622C3.08431 4.12814 3.39366 4 3.71622 4ZM3.71622 8.86486C4.03878 8.86486 4.34813 8.993 4.57621 9.22109C4.8043 9.44917 4.93243 9.75852 4.93243 10.0811C4.93243 10.4036 4.8043 10.713 4.57621 10.9411C4.34813 11.1692 4.03878 11.2973 3.71622 11.2973C3.39366 11.2973 3.08431 11.1692 2.85622 10.9411C2.62814 10.713 2.5 10.4036 2.5 10.0811C2.5 9.75852 2.62814 9.44917 2.85622 9.22109C3.08431 8.993 3.39366 8.86486 3.71622 8.86486ZM6.14865 15.7568V14.1351H17.5V15.7568H6.14865ZM3.71622 13.7297C4.03878 13.7297 4.34813 13.8579 4.57621 14.086C4.8043 14.314 4.93243 14.6234 4.93243 14.9459C4.93243 15.2685 4.8043 15.5779 4.57621 15.8059C4.34813 16.034 4.03878 16.1622 3.71622 16.1622C3.39366 16.1622 3.08431 16.034 2.85622 15.8059C2.62814 15.5779 2.5 15.2685 2.5 14.9459C2.5 14.6234 2.62814 14.314 2.85622 14.086C3.08431 13.8579 3.39366 13.7297 3.71622 13.7297Z" fill="#838799"/>
</svg>
