<svg width="20" height="20" viewBox="0 0 20 20" fill="none" xmlns="http://www.w3.org/2000/svg">
<path d="M6.44737 10.9737V9.39474H17.5V10.9737H6.44737ZM6.44737 15.7105V14.1316H17.5V15.7105H6.44737ZM6.44737 6.23684V4.6579H17.5V6.23684H6.44737ZM3.28947 7.02632V4.6579H2.5V3.86842H4.07895V7.02632H3.28947ZM2.5 14.1316V13.3421H4.86842V16.5H2.5V15.7105H4.07895V15.3158H3.28947V14.5263H4.07895V14.1316H2.5ZM4.27632 8.60526C4.43335 8.60526 4.58396 8.66765 4.695 8.77869C4.80604 8.88973 4.86842 9.04033 4.86842 9.19737C4.86842 9.35526 4.80526 9.50526 4.70263 9.6079L3.38421 10.9737H4.86842V11.7632H2.5V11.0368L4.07895 9.39474H2.5V8.60526H4.27632Z" fill="#838799"/>
</svg>
