<svg width="28" height="28" viewBox="0 0 28 28" fill="none" xmlns="http://www.w3.org/2000/svg">
<path d="M8.16675 22.1667V19.8333H10.5001V22.1667H8.16675ZM12.8334 22.1667V19.8333H15.1667V22.1667H12.8334ZM17.5001 22.1667V19.8333H19.8334V22.1667H17.5001ZM8.16675 17.5V15.1667H10.5001V17.5H8.16675ZM12.8334 17.5V15.1667H15.1667V17.5H12.8334ZM17.5001 17.5V15.1667H19.8334V17.5H17.5001ZM8.16675 12.8333V10.5H10.5001V12.8333H8.16675ZM12.8334 12.8333V10.5H15.1667V12.8333H12.8334ZM17.5001 12.8333V10.5H19.8334V12.8333H17.5001ZM8.16675 8.16668V5.83334H10.5001V8.16668H8.16675ZM12.8334 8.16668V5.83334H15.1667V8.16668H12.8334ZM17.5001 8.16668V5.83334H19.8334V8.16668H17.5001Z" fill="#DADCE3"/>
</svg>
