<svg width="20" height="20" viewBox="0 0 20 20"  xmlns="http://www.w3.org/2000/svg">
<path d="M9.9999 1.66675C14.5999 1.66675 18.3332 5.40008 18.3332 10.0001C18.3332 14.6084 14.5999 18.3334 9.9999 18.3334C5.39156 18.3334 1.66656 14.6084 1.66656 10.0001C1.66656 5.40008 5.39156 1.66675 9.9999 1.66675ZM13.2082 7.25841C13.2999 6.96675 13.0332 6.69175 12.7416 6.78341L8.4749 8.11675C8.2999 8.17508 8.15823 8.30841 8.10823 8.48341L6.7749 12.7584C6.68323 13.0417 6.95823 13.3167 7.24156 13.2251L11.4916 11.8917C11.6666 11.8417 11.8082 11.7001 11.8582 11.5251L13.2082 7.25841Z" />
</svg>
