<svg width="20" height="20" viewBox="0 0 20 20" fill="none" xmlns="http://www.w3.org/2000/svg">
<path d="M11.6667 10.6667C11.25 10.2583 10.65 10 10 10C8.61667 10 7.5 11.1167 7.5 12.5C7.5 13.5917 8.2 14.5083 9.16667 14.85C9.225 13.0583 10.225 11.5 11.6667 10.6667ZM9.24167 15.8333H4.16667V4.16667H13.475L15.8333 6.525V10.2917C16.4583 10.5083 17.0167 10.8333 17.5 11.2833V5.83333L14.1667 2.5H4.16667C3.24167 2.5 2.5 3.25 2.5 4.16667V15.8333C2.5 16.75 3.24167 17.5 4.16667 17.5H9.84167C9.55 16.9917 9.34167 16.4333 9.24167 15.8333ZM5 8.33333H12.5V5H5V8.33333ZM13.125 17.5L10.8333 15L11.8 14.0333L13.125 15.3583L16.1167 12.3667L17.0833 13.5417L13.125 17.5Z" fill="#6DC26C"/>
</svg>
