<svg width="20" height="20" viewBox="0 0 20 20"  xmlns="http://www.w3.org/2000/svg">
<path d="M17.8628 2.15167C17.446 1.72385 16.8291 1.56447 16.2538 1.73224L2.84002 5.63296C2.2331 5.80157 1.80293 6.28559 1.68705 6.90048C1.56866 7.52627 1.98217 8.32068 2.52239 8.65287L6.7166 11.2307C7.14678 11.4949 7.70201 11.4287 8.05799 11.0696L12.8608 6.23694C13.1026 5.98528 13.5027 5.98528 13.7445 6.23694C13.9862 6.48021 13.9862 6.87448 13.7445 7.12613L8.93334 11.9597C8.57653 12.3179 8.50984 12.8757 8.77245 13.3086L11.3352 17.5448C11.6353 18.0481 12.1522 18.3334 12.7191 18.3334C12.7858 18.3334 12.8608 18.3334 12.9275 18.325C13.5777 18.2411 14.0946 17.7965 14.2864 17.1673L18.263 3.77068C18.4381 3.20025 18.2797 2.57949 17.8628 2.15167Z" />
</svg>
