<svg width="20" height="20" viewBox="0 0 20 20" fill="none" xmlns="http://www.w3.org/2000/svg">
<path d="M4.5 17H15.3889V15.4444H4.5V17ZM9.94444 13.8889C11.1821 13.8889 12.3691 13.3972 13.2443 12.5221C14.1194 11.6469 14.6111 10.4599 14.6111 9.22222V3H12.6667V9.22222C12.6667 9.9442 12.3799 10.6366 11.8693 11.1471C11.3588 11.6576 10.6664 11.9444 9.94444 11.9444C9.22247 11.9444 8.53006 11.6576 8.01954 11.1471C7.50903 10.6366 7.22222 9.9442 7.22222 9.22222V3H5.27778V9.22222C5.27778 10.4599 5.76944 11.6469 6.64461 12.5221C7.51978 13.3972 8.70677 13.8889 9.94444 13.8889Z" fill="#838799"/>
</svg>
